<?xml version="1.0" encoding="utf-8"?>
<!-- Generator: Adobe Illustrator 26.5.0, SVG Export Plug-In . SVG Version: 6.00 Build 0)  -->
<svg version="1.1" id="Layer_2_00000062889436677114243970000016236379367127140758_"
	 xmlns="http://www.w3.org/2000/svg" xmlns:xlink="http://www.w3.org/1999/xlink" x="0px" y="0px" viewBox="0 0 360 62.4"
	 style="enable-background:new 0 0 360 62.4;" xml:space="preserve">
<style type="text/css">
	.st0{fill-rule:evenodd;clip-rule:evenodd;fill:#0598CD;}
	.st1{fill-rule:evenodd;clip-rule:evenodd;fill:#1D2E39;}
	.st2{fill:#1D2E39;}
</style>
<g id="Crop_Marks">
	<g>
		<g>
			<path id="Path_12" class="st0" d="M31.1,62.4C13.9,62.3,0,48.4,0,31.1C0,13.9,14,0,31.2,0c17.2,0,31.1,14,31.1,31.2v1.2h-8.5
				v-1.2c0-12.6-10.2-22.8-22.8-22.8C18.6,8.7,8.6,19.1,8.9,31.7C9.2,43.9,19,53.6,31.2,53.9l1.2,0v8.4H31.1z"/>
			<path id="Path_13" class="st1" d="M38.3,62.4V54h15.6V38.3h8.4v24C62.3,62.4,38.3,62.4,38.3,62.4z"/>
		</g>
		<g>
			<g id="text">
				<path id="Path_1" class="st2" d="M97.1,13.4l4.7,12.2h-9.6L97.1,13.4L97.1,13.4z M93.8,4.8L81,36.9l6.8,0l1.9-4.9h14.5l1.9,4.9
					h6.8l-12.7-32C100.1,4.8,93.8,4.8,93.8,4.8z"/>
				<path id="Path_2" class="st2" d="M114.8,36.9V4.8h12.3c10,0,15,5.3,15,16s-5,16-15,16L114.8,36.9L114.8,36.9z M127.2,30.5
					c5.7,0,8.5-3.2,8.5-9.6s-2.9-9.6-8.6-9.6h-5.9v19.2C121.2,30.5,127.2,30.5,127.2,30.5z"/>
				<path id="Path_3" class="st2" d="M140.9,36.9l12.8-32h6.4l12.8,32h-6.8l-2-4.9h-14.5l-1.9,4.9L140.9,36.9L140.9,36.9z M157,13.4
					l-4.9,12.2h9.6L157,13.4z"/>
				<path id="Path_4" class="st2" d="M175.4,36.9v-32h2.1l13.9,15.8l13.9-15.8h2.1v32h-6.4l0-18.6L191.4,29l-9.6-10.7v18.6
					L175.4,36.9L175.4,36.9z"/>
				<path id="Path_5" class="st2" d="M210,36.9l12.8-32h6.4l12.8,32h-6.8l-1.9-4.9h-14.6l-1.9,4.9L210,36.9L210,36.9z M226.2,13.4
					l-4.9,12.2h9.6L226.2,13.4L226.2,13.4z"/>
				<path id="Path_6" class="st2" d="M244.5,36.9v-32h2.1l20.1,20.1V4.8h6.4v32h-2.4L250.9,17v19.9H244.5L244.5,36.9z"/>
				<path id="Path_7" class="st2" d="M303.4,4.8v6h-10.7v26h-6.4v-26h-10.7v-6H303.4z"/>
				<path id="Path_8" class="st2" d="M312.3,4.8v18.6c0,2.4,0.7,4.2,2.1,5.3c3.2,2.3,7.5,2.3,10.7,0c1.4-1.1,2.1-2.9,2.1-5.3V4.8
					h6.4v20.3c0,3.2-1.4,6.3-4,8.3c-5.8,4.5-14,4.5-19.9,0c-2.5-2-4-5.1-4-8.3V4.8H312.3L312.3,4.8z"/>
				<path id="Path_9" class="st2" d="M355,5.9c1.7,0.8,3.3,1.8,4.6,3.2l-4.3,4.3c-1.5-1.7-3.7-2.7-6-2.6c-2.6,0-4.2,0.6-4.9,1.8
					c-0.7,0.9-0.7,2.2,0,3.1c0.7,0.8,2.4,1.5,4.9,1.9c2.6,0.3,5.2,1.2,7.4,2.7c2.2,1.5,3.3,3.9,3.3,7.2c0,2.6-1.4,5.1-3.5,6.6
					c-2.3,1.9-5.2,2.8-8.2,2.8c-2.6,0.1-5.1-0.4-7.5-1.3c-1.9-0.8-3.6-2-5.1-3.4l4.3-4.3c1.4,1.7,3.8,2.7,7.3,3
					c2.8,0,4.6-0.6,5.3-1.8c0.7-1.1,0.7-2.5,0-3.6c-0.7-1.2-2.5-2-5.3-2.2c-2.5-0.3-4.9-1.1-7-2.4c-2.1-1.3-3.2-3.5-3.2-6.6
					c0-2.8,1.3-5.3,3.6-6.8c2.2-1.6,4.8-2.5,7.5-2.6C350.4,4.8,352.8,5.1,355,5.9"/>
			</g>
			<g>
				<path class="st2" d="M95.4,57.5c-0.3,0-0.6-0.2-0.8-0.5L91,49.5L87.3,57c-0.1,0.3-0.5,0.5-0.9,0.5s-0.7-0.2-0.8-0.5l-4.6-10.3
					c-0.1-0.3-0.1-0.6,0.1-0.8c0.2-0.3,0.5-0.4,0.8-0.4c0.4,0,0.7,0.2,0.8,0.5l3.7,8.5l3.6-7.3c0.1-0.3,0.4-0.5,0.8-0.5
					c0.3,0,0.7,0.2,0.8,0.5l3.6,7.4l3.7-8.6c0.1-0.3,0.4-0.6,0.8-0.6c0.3,0,0.6,0.1,0.8,0.4c0.2,0.2,0.2,0.5,0.1,0.8L96.2,57
					C96.1,57.3,95.7,57.6,95.4,57.5L95.4,57.5z"/>
				<path class="st2" d="M105.4,57.3c-0.6,0-1.1-0.4-1.1-1v-9.6c0-0.6,0.4-1,1.1-1h7.4c0.3,0,0.5,0.1,0.6,0.2
					c0.1,0.1,0.2,0.3,0.2,0.5c0,0.4-0.3,0.8-0.8,0.8h-6.7v3.5h6.3c0.5,0,0.8,0.4,0.8,0.8c0,0.2-0.1,0.4-0.2,0.5
					c-0.1,0.2-0.3,0.3-0.6,0.3h-6.3v3.3h6.7c0.5,0,0.8,0.4,0.8,0.8c0,0.2-0.1,0.4-0.2,0.5c-0.1,0.1-0.3,0.2-0.6,0.2L105.4,57.3
					L105.4,57.3z"/>
				<path class="st2" d="M124.2,57.3c-0.6,0-1.1-0.5-1.1-1v-9.7c0-0.5,0.5-1,1.1-1h3.8c3.8,0,5.5,3,5.5,5.8s-1.7,5.8-5.5,5.8
					C128,57.3,124.2,57.3,124.2,57.3z M128,55.7c2.5,0,3.7-2.2,3.7-4.2s-1.2-4.2-3.7-4.2h-3.1v8.4H128z"/>
				<path class="st2" d="M138.1,57.3c-0.6,0-1.1-0.4-1.1-1v-9.6c0-0.6,0.4-1,1.1-1h7.4c0.3,0,0.5,0.1,0.6,0.2
					c0.1,0.1,0.2,0.3,0.2,0.5c0,0.4-0.3,0.8-0.8,0.8h-6.7v3.5h6.4c0.5,0,0.8,0.4,0.8,0.8c0,0.2-0.1,0.4-0.2,0.5
					c-0.1,0.2-0.4,0.3-0.6,0.3h-6.4v3.3h6.7c0.5,0,0.8,0.4,0.8,0.8c0,0.2-0.1,0.4-0.2,0.5c-0.1,0.1-0.3,0.2-0.6,0.2L138.1,57.3
					L138.1,57.3z"/>
				<path class="st2" d="M154.8,57.5c-0.3,0-0.6-0.2-0.8-0.6l-5.1-10.2c-0.1-0.3-0.1-0.6,0-0.8c0.2-0.3,0.5-0.4,0.8-0.4
					c0.4,0,0.6,0.2,0.8,0.5l4.3,8.5l4.2-8.5c0.1-0.3,0.4-0.5,0.8-0.5c0.3,0,0.6,0.2,0.8,0.4c0.2,0.2,0.2,0.5,0.1,0.8l-5.1,10.2
					C155.4,57.3,155.1,57.4,154.8,57.5L154.8,57.5z"/>
				<path class="st2" d="M164.8,57.3c-0.6,0-1.1-0.4-1.1-1v-9.6c0-0.6,0.4-1,1.1-1h7.4c0.3,0,0.5,0.1,0.6,0.2
					c0.1,0.1,0.2,0.3,0.2,0.5c0,0.4-0.3,0.8-0.8,0.8h-6.7v3.5h6.4c0.5,0,0.8,0.4,0.8,0.8c0,0.2-0.1,0.4-0.2,0.5
					c-0.1,0.2-0.4,0.3-0.6,0.3h-6.4v3.3h6.7c0.5,0,0.8,0.4,0.8,0.8c0,0.2-0.1,0.4-0.2,0.5c-0.1,0.1-0.3,0.2-0.6,0.2L164.8,57.3
					L164.8,57.3z"/>
				<path class="st2" d="M177.6,57.3c-0.6,0-0.9-0.3-0.9-0.9V46.3c0-0.6,0.4-0.9,0.9-0.9s0.9,0.3,0.9,0.9v9.3h6.3
					c0.6,0,0.9,0.4,0.9,0.8s-0.3,0.8-0.9,0.8H177.6L177.6,57.3z"/>
				<path class="st2" d="M193.1,57.5c-3.5,0-5.9-2.5-5.9-6.2c0-3,2-5.3,4.9-5.8c0.3,0,0.6-0.1,0.9-0.1c0.3,0,0.7,0,1,0.1
					c2.9,0.5,5,2.9,5,5.8C198.9,54.8,196.4,57.5,193.1,57.5z M193,47.1c-0.2,0-0.5,0-0.7,0c-2,0.3-3.3,1.9-3.3,4.2
					c0,2.6,1.7,4.5,4.1,4.5s4.1-1.8,4.1-4.5c0-2.1-1.4-3.8-3.4-4.2C193.4,47.1,193.2,47.1,193,47.1L193,47.1z"/>
				<path class="st2" d="M203.5,57.4c-0.2,0-0.4-0.1-0.6-0.2c-0.2-0.2-0.3-0.4-0.3-0.6V46.5c0-0.5,0.4-0.9,0.9-0.9h3.8
					c3.2,0,4.7,2.2,4.7,4.3s-1.2,4.1-4.8,4.1h-2.9v2.6C204.4,57.1,203.9,57.4,203.5,57.4L203.5,57.4z M207.3,52.4
					c1,0,1.9-0.3,2.4-0.8c0.4-0.4,0.6-1,0.6-1.6c0-1.3-1.1-2.7-2.9-2.7h-3v5.1L207.3,52.4L207.3,52.4z"/>
				<path class="st2" d="M215.5,57.3c-0.6,0-1-0.4-1-1s0.4-1,1-1s1,0.4,1,1S216.1,57.3,215.5,57.3z"/>
				<path class="st2" d="M230.5,57.4c-0.5,0-0.9-0.4-0.9-0.9v-3.8l-4.4-5.8c-0.2-0.3-0.2-0.6-0.1-0.8c0.1-0.3,0.5-0.5,0.9-0.5
					c0.3,0,0.6,0.2,0.8,0.4l3.8,5.1l3.8-5.2c0.2-0.2,0.4-0.4,0.7-0.4c0.3,0,0.6,0.2,0.8,0.5c0.1,0.3,0.1,0.6-0.1,0.8l-4.4,5.9v3.8
					C231.4,57.1,231,57.4,230.5,57.4L230.5,57.4z"/>
				<path class="st2" d="M244.2,57.5c-3.5,0-5.9-2.5-5.9-6.2c0-3,2-5.3,4.9-5.8c0.3,0,0.6-0.1,0.9-0.1c0.3,0,0.7,0,1,0.1
					c2.9,0.5,5,2.9,5,5.8C250,54.8,247.5,57.5,244.2,57.5z M244.1,47.1c-0.2,0-0.5,0-0.7,0c-2,0.3-3.3,1.9-3.3,4.2
					c0,2.6,1.7,4.5,4.1,4.5s4.1-1.8,4.1-4.5c0-2.1-1.4-3.8-3.4-4.2C244.5,47.1,244.3,47.1,244.1,47.1L244.1,47.1z"/>
				<path class="st2" d="M259.1,57.4c-2.7,0-5.4-1.8-5.4-5.3v-5.8c0-0.5,0.4-0.8,0.9-0.8s0.9,0.3,0.9,0.8v5.8c0,2.4,1.9,3.6,3.6,3.6
					s3.6-1.1,3.6-3.6v-5.8c0-0.6,0.5-0.9,0.9-0.9s0.9,0.3,0.9,0.9v5.8C264.5,55.6,261.8,57.4,259.1,57.4L259.1,57.4z"/>
				<path class="st2" d="M276.2,57.3c-0.5,0-0.9-0.4-0.9-0.9v-9.9c0-0.5,0.4-0.9,0.9-0.9h4.1c2.1,0,4.4,0.9,4.4,3.3
					c0,0.9-0.4,1.6-1,2c1.2,0.5,1.8,1.5,1.8,2.8c0,2.3-1.7,3.6-4.8,3.6L276.2,57.3L276.2,57.3z M280.8,55.7c2,0,3-0.7,3-1.9
					c0-1.6-1.7-1.7-2.5-1.7h-4.2v3.7H280.8z M280.4,50.4c1.2,0,2.6-0.2,2.6-1.4c0-1.6-2.4-1.7-2.6-1.7h-3.3v3.1H280.4L280.4,50.4z"
					/>
				<path class="st2" d="M290.2,57.3c-0.6,0-1-0.4-1-1v-9.6c0-0.6,0.5-1,1-1h7.4c0.3,0,0.5,0.1,0.6,0.2c0.1,0.1,0.2,0.3,0.2,0.5
					c0,0.4-0.3,0.8-0.8,0.8h-6.7v3.5h6.4c0.5,0,0.8,0.4,0.8,0.8c0,0.2-0.1,0.4-0.2,0.5c-0.1,0.2-0.4,0.3-0.6,0.3h-6.4v3.3h6.7
					c0.5,0,0.8,0.4,0.8,0.8c0,0.2-0.1,0.4-0.2,0.5c-0.1,0.1-0.3,0.2-0.6,0.2L290.2,57.3L290.2,57.3z"/>
				<path class="st2" d="M302.9,57.5c-0.2,0-0.5-0.1-0.6-0.2c-0.1-0.1-0.3-0.3-0.3-0.7v-10c0-0.7,0.5-1,0.9-1c0.4,0,0.7,0.2,0.9,0.5
					l6.2,8.4l-0.1-1.8v-6.2c0-0.5,0.5-0.8,0.9-0.8s0.9,0.3,0.9,0.8v10.1c0,0.7-0.5,1-1,1c-0.4,0-0.8-0.2-1-0.5l-6.1-8.1l0.1,1.6v6.2
					C303.8,57.2,303.3,57.5,302.9,57.5L302.9,57.5z"/>
				<path class="st2" d="M317,57.3c-0.6,0-1-0.4-1-1v-9.6c0-0.6,0.5-1,1-1h7.4c0.3,0,0.5,0.1,0.6,0.2c0.1,0.1,0.2,0.3,0.2,0.5
					c0,0.4-0.3,0.8-0.8,0.8h-6.7v3.5h6.4c0.5,0,0.8,0.4,0.8,0.8c0,0.2-0.1,0.4-0.2,0.5c-0.1,0.2-0.4,0.3-0.6,0.3h-6.4v3.3h6.7
					c0.5,0,0.8,0.4,0.8,0.8c0,0.2-0.1,0.4-0.2,0.5c-0.1,0.1-0.3,0.2-0.6,0.2L317,57.3L317,57.3z"/>
				<path class="st2" d="M329.8,57.5c-0.4,0-0.9-0.3-0.9-0.9v-10c0-0.5,0.5-1,1-1h7.2c0.5,0,0.8,0.4,0.8,0.8c0,0.2-0.1,0.4-0.2,0.5
					c-0.1,0.2-0.4,0.2-0.6,0.2h-6.5v3.9h6.1c0.5,0,0.8,0.4,0.8,0.8c0,0.2-0.1,0.4-0.2,0.5c-0.1,0.2-0.4,0.2-0.6,0.2h-6.1v3.9
					C330.6,57.2,330.2,57.5,329.8,57.5L329.8,57.5z"/>
				<path class="st2" d="M342.2,57.5c-0.4,0-0.9-0.3-0.9-0.9V46.1c0-0.6,0.5-0.9,0.9-0.9s0.9,0.3,0.9,0.9v10.5
					C343.1,57.2,342.6,57.5,342.2,57.5L342.2,57.5z"/>
				<path class="st2" d="M350.9,57.5c-0.4,0-0.9-0.3-0.9-0.9v-9.3h-3.6c-0.6,0-0.9-0.4-0.9-0.8s0.3-0.8,0.9-0.8h9.1
					c0.6,0,0.9,0.4,0.9,0.8s-0.3,0.8-0.9,0.8h-3.7c0,1.5,0,7.7,0,9.3C351.8,57.2,351.4,57.5,350.9,57.5L350.9,57.5z"/>
				<path class="st2" d="M359,57.3c-0.6,0-1-0.4-1-1s0.4-1,1-1s1,0.4,1,1S359.6,57.3,359,57.3z"/>
			</g>
		</g>
	</g>
</g>
</svg>
